<svg width="136" height="80" viewBox="0 0 136 80" fill="none" xmlns="http://www.w3.org/2000/svg"><path d="M13.5636 3.92852H9.07043V23.6192H4.48115V3.92852H0V0H13.5636V3.92852Z" fill="black"/><path d="M28.7739 23.6071H24.1486V13.3353H19.8597V23.6071H15.2344V0H19.8597V9.77925H24.1486V0H28.7739V23.6071Z" fill="black"/><path d="M43.1648 20.0511V23.6071H32.1602V0H42.9366V3.55609H36.7855V9.67112H42.468V13.2272H36.7855V20.039H43.1648V20.0511Z" fill="black"/><path d="M14.9337 44.4032V45.1C14.9337 49.1246 12.8072 51.5154 8.41015 51.5154H1.73047V27.9082H8.21793C12.639 27.9082 14.6333 30.2028 14.6333 33.7229V34.5158C14.6333 36.8465 13.504 38.4684 11.6058 39.033C13.6362 39.6938 14.9337 41.3276 14.9337 44.3912V44.4032ZM6.35579 31.0919V37.9397H7.68932C9.34723 37.9397 9.91188 36.8705 9.91188 34.6119V33.843C9.91188 31.9448 9.31119 31.0799 7.65328 31.0799H6.35579V31.0919ZM10.1762 44.1989C10.1762 41.8322 9.47938 40.8711 7.8455 40.8711H6.34377V48.3197H7.94161C9.57549 48.3197 10.1642 47.1904 10.1642 45.0279V44.1989H10.1762Z" fill="black"/><path d="M23.6797 41.9043H22.0218V51.5154H17.3965V27.9082H23.6797C28.6054 27.9082 30.5276 30.2749 30.5636 34.2275V35.3568C30.5636 38.156 29.5304 39.946 27.7764 40.811L31.1042 51.5154H26.2867L23.6917 41.9043H23.6797ZM23.3794 38.9489C25.1694 38.9489 25.8062 37.8797 25.8062 35.585V34.0833C25.8062 31.9208 25.1454 31.0919 23.3794 31.0919H22.0218V38.9369H23.3794V38.9489Z" fill="black"/><path d="M44.1394 47.9593V51.5154H33.1348V27.9082H43.9112V31.4643H37.7601V37.5793H43.4426V41.1354H37.7601V47.9473H44.1394V47.9593Z" fill="black"/><path d="M46.3613 27.9085H51.311L55.2636 39.3817C55.624 40.547 55.9604 41.7484 56.2247 42.9017H56.2968C56.2006 41.1718 56.1286 39.4418 56.1286 37.6757V27.8965H60.1892V51.5036H55.7321L51.4071 39.0693C50.9386 37.6757 50.6382 36.5464 50.3739 35.3451H50.2778C50.3739 36.8708 50.446 38.3365 50.446 39.9343V51.5036H46.3613V27.8965V27.9085Z" fill="black"/><path d="M75.435 31.825H70.9418V51.5156H66.3525V31.825H61.8594V27.8965H75.423V31.825H75.435Z" fill="black"/><path d="M81.7191 31.4886V37.6036H87.4016V41.1597H81.7191V51.5036H77.0938V27.8965H87.8701V31.4886H81.7191Z" fill="black"/><path d="M88.9023 44.5959V34.8166C88.9023 29.9991 91.5574 27.332 96.0506 27.332C100.544 27.332 103.235 29.9871 103.235 34.8166V44.5959C103.235 49.4134 100.58 52.0805 96.0506 52.0805C91.5214 52.0805 88.9023 49.4254 88.9023 44.5959ZM98.4894 45.1605V34.252C98.4894 32.1255 97.6244 30.9602 96.0626 30.9602C94.5008 30.9602 93.6718 32.1255 93.6718 34.252V45.1605C93.6718 47.287 94.5368 48.4523 96.0626 48.4523C97.5883 48.4523 98.4894 47.287 98.4894 45.1605Z" fill="black"/><path d="M112.221 41.9043H110.563V51.5154H105.938V27.9082H112.221C117.146 27.9082 119.069 30.2749 119.105 34.2275V35.3568C119.105 38.156 118.071 39.946 116.317 40.811L119.645 51.5154H114.828L112.233 41.9043H112.221ZM111.92 38.9489C113.71 38.9489 114.347 37.8797 114.347 35.585V34.0833C114.347 31.9208 113.686 31.0919 111.92 31.0919H110.563V38.9369H111.92V38.9489Z" fill="black"/><path d="M121.664 27.9082H127.912C132.837 27.9082 135.492 30.7315 135.492 36.0536V43.0336C135.492 48.584 132.861 51.5154 127.876 51.5154H121.652V27.9082H121.664ZM127.719 48.1515C129.786 48.1515 130.747 46.4575 130.747 43.358V35.8373C130.747 32.6777 129.846 31.248 127.719 31.248H126.29V48.1395H127.719V48.1515Z" fill="black"/><path d="M14.8616 61.8597V63.8179C14.8616 68.0468 12.5309 70.3654 8.31404 70.3654H6.35579V79.4118H1.73047V55.8047H8.21793C12.603 55.8047 14.8375 57.8711 14.8736 61.8597H14.8616ZM10.1041 62.0278C10.1041 59.9014 9.37126 59.0004 7.74939 59.0004H6.35579V67.1097H7.74939C9.38327 67.1097 10.1041 66.1125 10.1041 63.7458V62.0158V62.0278Z" fill="black"/><path d="M23.1504 69.8008H21.4925V79.4118H16.8672V55.8047H23.1504C28.0761 55.8047 29.9983 58.1714 30.0343 62.124V63.2533C30.0343 66.0525 29.0011 67.8425 27.2471 68.7075L30.575 79.4118H25.7574L23.1624 69.8008H23.1504ZM22.8501 66.8454C24.6401 66.8454 25.2769 65.7762 25.2769 63.4935V61.9918C25.2769 59.8293 24.6161 59.0004 22.8501 59.0004H21.4925V66.8454H22.8501Z" fill="black"/><path d="M31.8613 72.5041V62.7248C31.8613 57.9073 34.5164 55.2402 39.0096 55.2402C43.5027 55.2402 46.1938 57.8953 46.1938 62.7248V72.5041C46.1938 77.3216 43.5388 79.9887 39.0096 79.9887C34.4803 79.9887 31.8613 77.3336 31.8613 72.5041ZM41.4363 73.0687V62.1602C41.4363 60.0338 40.5713 58.8684 39.0096 58.8684C37.4478 58.8684 36.6188 60.0338 36.6188 62.1602V73.0687C36.6188 75.1952 37.4838 76.3605 39.0096 76.3605C40.5353 76.3605 41.4363 75.1952 41.4363 73.0687Z" fill="black"/><path d="M49.1972 79.8203C48.3322 79.8203 47.5993 79.7602 46.9746 79.6161V75.5554C47.5032 75.6515 47.9117 75.6876 48.2721 75.6876C49.3413 75.6876 50.2664 75.183 50.2664 73.465V55.8047H54.8557V74.4982C54.8557 78.5949 52.2967 79.8203 49.1972 79.8203Z" fill="black"/><path d="M69.0437 75.8557V79.4118H58.0391V55.8047H68.8155V59.3608H62.6644V65.4758H68.3469V69.0319H62.6644V75.8437H69.0437V75.8557Z" fill="black"/><path d="M70.3418 72.6002V62.5927C70.3418 57.7751 72.8647 55.2402 77.3939 55.2402C81.6828 55.2402 84.1096 57.3667 84.1096 61.6917V64.0824L79.3522 64.9834V61.8238C79.3522 59.8656 78.6914 58.8684 77.2858 58.8684C75.8802 58.8684 75.0873 59.9016 75.0873 62.1962V72.8765C75.0873 75.1351 75.8561 76.3365 77.2858 76.3365C78.7154 76.3365 79.3762 75.3033 79.3762 73.3811V69.8611L84.0976 70.8222V73.3811C84.0976 77.7061 81.5387 80.0007 77.2858 80.0007C72.7686 80.0007 70.3418 77.5379 70.3418 72.6242V72.6002Z" fill="black"/><path d="M98.2846 59.7332H93.7914V79.4239H89.2021V59.7332H84.709V55.8047H98.2726V59.7332H98.2846Z" fill="black"/></svg>